<?xml version="1.0" encoding="utf-8"?>
<!-- Generator: Adobe Illustrator 21.1.0, SVG Export Plug-In . SVG Version: 6.00 Build 0)  -->
<svg version="1.1" id="Layer_1" xmlns="http://www.w3.org/2000/svg" xmlns:xlink="http://www.w3.org/1999/xlink" x="0px" y="0px"
	 viewBox="0 0 593.3 217.9" style="enable-background:new 0 0 593.3 217.9;" xml:space="preserve">
<style type="text/css">
	.st0{fill:#94D600;}
	.st1{fill:#55C1E9;}
	.st2{fill:#FFFFFF;}
</style>
<rect x="548.2" y="44.9" class="st0" width="42.7" height="77.1"/>
<rect x="478.4" y="2.6" class="st1" width="70.1" height="42.7"/>
<rect x="548.2" y="2.6" class="st2" width="42.7" height="42.7"/>
<g>
	<path class="st2" d="M479.6,104.9V89.6H453v75.8h26.6v-23.5c0-17.5,7.8-25.5,21.7-25.5h2.2v-28C490.9,87.8,483.9,94.6,479.6,104.9z
		"/>
	<path class="st2" d="M37.4,67.4H1.1v98h35.8c33.9,0,53.7-21,53.7-49.3v-0.3C90.5,87.6,71,67.4,37.4,67.4z M63.8,116.5
		c0,15.8-10.4,24.8-26,24.8H27.2V91.4h10.6c15.6,0,26,9.1,26,24.8V116.5z"/>
	<path class="st2" d="M135.9,88.1c-24.1,0-41.6,18-41.6,39.6v0.3c0,21.5,17.3,39.3,41.3,39.3c24.1,0,41.6-18,41.6-39.6v-0.3
		C177.2,105.9,159.9,88.1,135.9,88.1z M151.5,128c0,9.1-6.1,16.8-15.7,16.8c-9.3,0-16-7.8-16-17.1v-0.3c0-9.1,6.1-16.8,15.7-16.8
		c9.3,0,16,7.8,16,17.1V128z"/>
	<path class="st2" d="M339.9,88c-10.8,0-17.8,6-22.7,12.3V89.7h-52.7l-10.2,38.4l-11.8-38.7h-22l-11.6,38.4L199,89.7h-26.1L196,166
		h22.8l12.6-39.4l12.3,39.4h23l16.6-54.1h7.3v53.5h26.6v-41c0-8.3,4.8-12.7,11.2-12.7c6.3,0,10.6,4.5,10.6,12.7v41h26.7v-49.6
		C365.7,98.6,356.1,88,339.9,88z"/>
	<path class="st2" d="M409,88c-22.4,0-38.2,17.5-38.2,39.6v0.3c0,23.5,16.8,39.4,40.6,39.4c15.1,0,25.6-6.2,32.9-15.4l-14.7-12.2
		c-5.5,5.3-10.5,7.7-16.8,7.7c-8.3,0-14.3-4.2-16.4-12.5h50.7c0.1-1.8,0.1-3.8,0.1-5.5C447.2,107.2,435.2,88,409,88z M396,121.3
		c1.4-8.3,6.2-13.7,13.2-13.7c7.3,0,12.2,5.3,13.2,13.7H396z"/>
</g>
<g>
	<path class="st2" d="M3.2,196.3v11.3H1.1V182h9c5,0,8,2.5,8,7.2c0,4.2-2.5,6.5-6.5,7l7.7,11.4h-2.5l-7.6-11.3H3.2z M3.2,194.4H10
		c3.9,0,6-2,6-5.2c0-3.4-2.1-5.2-6-5.2H3.2V194.4z"/>
	<path class="st2" d="M37.5,202.2c-0.7,3.4-3.3,5.7-7.2,5.7c-4.9,0-8.2-3.9-8.2-9.6c0-5.5,3.1-9.6,8.2-9.6c4.9,0,7.5,3.8,7.5,9v0.7
		H24.2c0,4.7,2.6,7.6,6.2,7.6c2.6,0,4.6-1.5,5.2-3.9L37.5,202.2L37.5,202.2z M24.2,196.9h11.5c-0.1-3.2-1.7-6.3-5.4-6.3
		C26.9,190.5,24.6,193,24.2,196.9z"/>
	<path class="st2" d="M44.4,207.6h-2.1v-27.1h2.1V207.6z"/>
	<path class="st2" d="M60.9,207.6v-1.7c-0.8,1-2.8,2-5.1,2c-3.7,0-6.8-2.2-6.8-5.7c0-3.4,3.1-5.7,6.9-5.7c2.2,0,4.2,1,5,2v-3.3
		c0-2.7-1.7-4.6-4.6-4.6c-2.3,0-3.8,1-4.5,3.2h-2c0.7-3.1,3.3-5,6.5-5c4.1,0,6.6,2.5,6.6,6.4v12.5h-2V207.6z M60.9,201
		c-0.6-1.6-2.7-2.7-4.9-2.7c-2.6,0-5.1,1.3-5.1,3.9s2.5,4,5.1,4c2.2,0,4.3-1.2,4.9-2.7V201z"/>
	<path class="st2" d="M69.4,190.9h-3.1v-1.8h3.1v-4.7h2v4.7h4.8v1.8h-4.8v12.2c0,2.1,0.9,3,2.7,3c0.9,0,1.8-0.3,2.5-0.7v2
		c-0.7,0.4-1.7,0.6-2.7,0.6c-2.7,0-4.5-1.5-4.5-4.7V190.9z"/>
	<path class="st2" d="M82,184.9c-0.8,0-1.4-0.6-1.4-1.4c0-0.7,0.6-1.4,1.4-1.4c0.8,0,1.4,0.7,1.4,1.4S82.8,184.9,82,184.9z
		 M83,207.6h-2.1v-18.5H83V207.6z"/>
	<path class="st2" d="M95.8,207.9c-4.9,0-8.2-3.9-8.2-9.6s3.3-9.6,8.2-9.6s8.2,3.9,8.2,9.6C104,204,100.7,207.9,95.8,207.9z
		 M95.8,190.5c-3.7,0-6.1,3.1-6.1,7.8s2.4,7.8,6.1,7.8c3.7,0,6.1-3.1,6.1-7.8S99.5,190.5,95.8,190.5z"/>
	<path class="st2" d="M108.6,189.1h2.1v3c1.1-1.7,3.3-3.3,5.9-3.3c4.2,0,6.4,2.7,6.4,6.6v12.2h-2v-12c0-2.9-1.5-5-4.7-5
		c-2.5,0-4.6,1.8-5.5,4v13h-2.1L108.6,189.1L108.6,189.1z"/>
	<path class="st2" d="M129.1,202.8c0.8,2.2,2.6,3.4,5.2,3.4c2.5,0,4.5-1.1,4.5-3.4c0-1.6-1.1-2.6-3.4-3.3l-3.5-1
		c-2.6-0.7-4.4-2-4.4-4.7c0-3.2,2.8-5.1,6.2-5.1c3.8,0,6.2,2,6.9,5h-2c-0.7-2.2-2.2-3.2-4.8-3.2c-2.3,0-4.2,1.1-4.2,3.2
		c0,1.7,1.1,2.4,3.3,3l3.3,0.9c3.2,0.8,4.6,2.6,4.6,5c0,3.3-2.8,5.2-6.5,5.2s-6.6-1.9-7.2-5.2h2V202.8z"/>
	<path class="st2" d="M145.3,180.5h2.1V192c1.1-1.7,3.3-3.3,5.9-3.3c4.2,0,6.4,2.7,6.4,6.6v12.2h-2v-12c0-2.9-1.5-5-4.7-5
		c-2.5,0-4.6,1.8-5.5,4v13h-2.1L145.3,180.5L145.3,180.5z"/>
	<path class="st2" d="M166.5,184.9c-0.8,0-1.4-0.6-1.4-1.4c0-0.7,0.6-1.4,1.4-1.4s1.4,0.7,1.4,1.4
		C167.9,184.2,167.2,184.9,166.5,184.9z M167.5,207.6h-2.1v-18.5h2.1V207.6z"/>
	<path class="st2" d="M175.5,214.7h-2.1v-25.6h2.1v2.7c1-1.6,3.2-3.1,5.7-3.1c5.5,0,8.1,4.5,8.1,9.6s-2.6,9.6-8.1,9.6
		c-2.5,0-4.7-1.5-5.7-3.1V214.7z M175.5,202.4c1.2,2.4,3.3,3.7,5.5,3.7c3.9,0,6.2-3.2,6.2-7.7s-2.3-7.7-6.2-7.7
		c-2.2,0-4.3,1.3-5.5,3.7V202.4z"/>
	<path class="st2" d="M194.3,202.8c0.8,2.2,2.6,3.4,5.2,3.4c2.5,0,4.5-1.1,4.5-3.4c0-1.6-1.1-2.6-3.4-3.3l-3.5-1
		c-2.6-0.7-4.4-2-4.4-4.7c0-3.2,2.8-5.1,6.2-5.1c3.8,0,6.2,2,6.9,5h-2c-0.7-2.2-2.2-3.2-4.8-3.2c-2.3,0-4.2,1.1-4.2,3.2
		c0,1.7,1.1,2.4,3.3,3l3.3,0.9c3.2,0.8,4.6,2.6,4.6,5c0,3.3-2.8,5.2-6.5,5.2s-6.6-1.9-7.2-5.2h2V202.8z"/>
	<path class="st2" d="M226.6,188.7c3.9,0,6.4,2.3,7.1,5.7h-2.1c-0.5-2.4-2.3-3.9-5-3.9c-3.6,0-6.1,3.1-6.1,7.7s2.5,7.7,6.1,7.7
		c2.6,0,4.4-1.5,5-3.9h2.1c-0.7,3.4-3.2,5.7-7.1,5.7c-4.9,0-8.2-3.9-8.2-9.6C218.4,192.6,221.7,188.7,226.6,188.7z"/>
	<path class="st2" d="M246.8,191c-0.5-0.2-1-0.3-1.7-0.3c-2.2,0-4,1.6-4.9,4v12.9h-2.1v-18.5h2.1v3c0.8-1.8,2.7-3.3,5-3.3
		c0.7,0,1.2,0.1,1.6,0.2V191z"/>
	<path class="st2" d="M264.3,202.2c-0.7,3.4-3.3,5.7-7.2,5.7c-4.9,0-8.2-3.9-8.2-9.6c0-5.5,3.1-9.6,8.2-9.6c4.9,0,7.5,3.8,7.5,9v0.7
		H251c0,4.7,2.6,7.6,6.2,7.6c2.6,0,4.6-1.5,5.2-3.9L264.3,202.2L264.3,202.2z M251,196.9h11.5c-0.1-3.2-1.7-6.3-5.4-6.3
		C253.7,190.5,251.5,193,251,196.9z"/>
	<path class="st2" d="M279.7,207.6v-1.7c-0.8,1-2.8,2-5.1,2c-3.7,0-6.8-2.2-6.8-5.7c0-3.4,3.1-5.7,6.9-5.7c2.2,0,4.2,1,5,2v-3.3
		c0-2.7-1.7-4.6-4.6-4.6c-2.3,0-3.8,1-4.5,3.2h-2c0.7-3.1,3.3-5,6.5-5c4.1,0,6.6,2.5,6.6,6.4v12.5h-2V207.6z M279.7,201
		c-0.6-1.6-2.7-2.7-4.9-2.7c-2.6,0-5.1,1.3-5.1,3.9s2.5,4,5.1,4c2.2,0,4.3-1.2,4.9-2.7V201z"/>
	<path class="st2" d="M288.2,190.9h-3.1v-1.8h3.1v-4.7h2v4.7h4.8v1.8h-4.8v12.2c0,2.1,0.9,3,2.7,3c0.9,0,1.8-0.3,2.5-0.7v2
		c-0.7,0.4-1.7,0.6-2.7,0.6c-2.7,0-4.5-1.5-4.5-4.7V190.9z"/>
	<path class="st2" d="M300.8,184.9c-0.8,0-1.4-0.6-1.4-1.4c0-0.7,0.6-1.4,1.4-1.4s1.4,0.7,1.4,1.4S301.6,184.9,300.8,184.9z
		 M301.9,207.6h-2.1v-18.5h2.1V207.6z"/>
	<path class="st2" d="M307.8,189.1h2.1v3c1.1-1.7,3.3-3.3,5.9-3.3c4.2,0,6.4,2.7,6.4,6.6v12.2h-2v-12c0-2.9-1.5-5-4.7-5
		c-2.5,0-4.6,1.8-5.5,4v13h-2.1L307.8,189.1L307.8,189.1z"/>
	<path class="st2" d="M340.2,204.4c-1,1.6-3.2,3-5.7,3c-5.4,0-8-4.4-8-9.4c0-4.9,2.6-9.4,8-9.4c2.5,0,4.7,1.5,5.7,3.1V189h2.1v17.2
		c0,5.8-3.2,8.8-7.8,8.8c-4.2,0-6.9-2.1-7.6-5.6h2.1c0.6,2.6,2.7,3.8,5.5,3.8c3.7,0,5.7-2.4,5.7-6.9L340.2,204.4L340.2,204.4z
		 M340.2,194.2c-1.2-2.3-3.2-3.6-5.5-3.6c-3.8,0-6.1,3.1-6.1,7.5s2.2,7.5,6.1,7.5c2.2,0,4.3-1.3,5.5-3.6V194.2z"/>
	<path class="st2" d="M357.8,202.8c0.8,2.2,2.6,3.4,5.2,3.4c2.5,0,4.5-1.1,4.5-3.4c0-1.6-1.1-2.6-3.4-3.3l-3.5-1
		c-2.6-0.7-4.4-2-4.4-4.7c0-3.2,2.8-5.1,6.2-5.1c3.8,0,6.2,2,6.9,5h-2c-0.7-2.2-2.2-3.2-4.8-3.2c-2.3,0-4.2,1.1-4.2,3.2
		c0,1.7,1.1,2.4,3.3,3l3.3,0.9c3.2,0.8,4.6,2.6,4.6,5c0,3.3-2.8,5.2-6.5,5.2s-6.6-1.9-7.2-5.2h2V202.8z"/>
	<path class="st2" d="M388.2,207.6h-2v-3c-1.1,1.7-3.2,3.3-5.9,3.3c-4.2,0-6.4-2.7-6.4-6.6v-12.2h2v12c0,2.9,1.5,5,4.7,5
		c2.5,0,4.6-1.8,5.5-4v-13h2L388.2,207.6L388.2,207.6z"/>
	<path class="st2" d="M400.9,188.7c3.9,0,6.4,2.3,7.1,5.7h-2.1c-0.5-2.4-2.3-3.9-5-3.9c-3.6,0-6.1,3.1-6.1,7.7s2.5,7.7,6.1,7.7
		c2.6,0,4.4-1.5,5-3.9h2.1c-0.7,3.4-3.2,5.7-7.1,5.7c-4.9,0-8.2-3.9-8.2-9.6C392.7,192.6,396,188.7,400.9,188.7z"/>
	<path class="st2" d="M419.1,188.7c3.9,0,6.4,2.3,7.1,5.7h-2.1c-0.5-2.4-2.3-3.9-5-3.9c-3.6,0-6.1,3.1-6.1,7.7s2.5,7.7,6.1,7.7
		c2.6,0,4.4-1.5,5-3.9h2.1c-0.7,3.4-3.2,5.7-7.1,5.7c-4.9,0-8.2-3.9-8.2-9.6C411,192.6,414.3,188.7,419.1,188.7z"/>
	<path class="st2" d="M444.6,202.2c-0.7,3.4-3.3,5.7-7.2,5.7c-4.9,0-8.2-3.9-8.2-9.6c0-5.5,3.1-9.6,8.2-9.6c4.9,0,7.5,3.8,7.5,9v0.7
		h-13.6c0,4.7,2.6,7.6,6.2,7.6c2.6,0,4.6-1.5,5.2-3.9L444.6,202.2L444.6,202.2z M431.3,196.9h11.5c-0.1-3.2-1.7-6.3-5.4-6.3
		C434,190.5,431.8,193,431.3,196.9z"/>
	<path class="st2" d="M450,202.8c0.7,2.2,2.6,3.4,5.2,3.4c2.5,0,4.5-1.1,4.5-3.4c0-1.6-1.1-2.6-3.4-3.3l-3.5-1
		c-2.6-0.7-4.4-2-4.4-4.7c0-3.2,2.8-5.1,6.2-5.1c3.8,0,6.2,2,6.9,5h-2c-0.7-2.2-2.2-3.2-4.8-3.2c-2.3,0-4.2,1.1-4.2,3.2
		c0,1.7,1.1,2.4,3.3,3l3.3,0.9c3.2,0.8,4.6,2.6,4.6,5c0,3.3-2.8,5.2-6.5,5.2s-6.6-1.9-7.2-5.2h2V202.8z"/>
	<path class="st2" d="M466.8,202.8c0.8,2.2,2.6,3.4,5.2,3.4c2.5,0,4.5-1.1,4.5-3.4c0-1.6-1.1-2.6-3.4-3.3l-3.5-1
		c-2.6-0.7-4.4-2-4.4-4.7c0-3.2,2.8-5.1,6.2-5.1c3.8,0,6.2,2,6.9,5h-2c-0.7-2.2-2.2-3.2-4.8-3.2c-2.3,0-4.2,1.1-4.2,3.2
		c0,1.7,1.1,2.4,3.3,3l3.3,0.9c3.2,0.8,4.6,2.6,4.6,5c0,3.3-2.8,5.2-6.5,5.2s-6.6-1.9-7.2-5.2h2V202.8z"/>
</g>
</svg>
